<?xml version="1.0" encoding="utf-8"?>
<!-- Generator: Adobe Illustrator 24.3.0, SVG Export Plug-In . SVG Version: 6.00 Build 0)  -->
<svg version="1.1" id="Out_line" xmlns="http://www.w3.org/2000/svg" xmlns:xlink="http://www.w3.org/1999/xlink" x="0px" y="0px"
	 viewBox="0 0 512 512" style="enable-background:new 0 0 512 512;" xml:space="preserve">
<style type="text/css">
	.st0{fill:#020736;}
	.st1{fill:#3BD4AE;}
</style>
<circle class="st0" cx="336" cy="56" r="8"/>
<circle class="st0" cx="368" cy="56" r="8"/>
<path class="st0" d="M248,48h64v16h-64V48z"/>
<path class="st0" d="M248,448h64v16h-64V448z"/>
<path class="st0" d="M488,448h-24V214.6c0-32-24.2-58.9-56-62.3V40c0-13.2-10.8-24-24-24H176c-13.2,0-24,10.8-24,24v72H24
	c-4.4,0-8,3.6-8,8v272c0,4.4,3.6,8,8,8h128v72c0,13.2,10.8,24,24,24h208c13.2,0,24-10.8,24-24v-8h72v32h16v-40
	C496,451.6,492.4,448,488,448z M176,32h208c4.4,0,8,3.6,8,8v41.4c-2.6-0.9-5.3-1.4-8-1.4H176c-2.7,0-5.4,0.5-8,1.4V40
	C168,35.6,171.6,32,176,32z M312,400v-16H32V128h280v-16H168v-8c0-4.4,3.6-8,8-8h208c4.4,0,8,3.6,8,8v101.2
	c-14.8-11-35.8-8-46.8,6.8c-9.9,13.3-8.6,31.9,3.2,43.7l40.3,40.3l-5.1,5.1c-28.1,28.1-28.1,73.7,0,101.8l7.9,7.9
	c-1.2,3.1-4.2,5.2-7.5,5.2H176c-4.4,0-8-3.6-8-8v-8H312z M392,472c0,4.4-3.6,8-8,8H176c-4.4,0-8-3.6-8-8v-41.4
	c2.6,0.9,5.3,1.4,8,1.4h208c2.7,0,5.4-0.5,8-1.4V472z M408,448v-40c0-2.1-0.8-4.2-2.3-5.7l-10.7-10.7c-21.8-21.9-21.8-57.3,0-79.2
	l10.7-10.7c3.1-3.1,3.1-8.2,0-11.3l-46-46c-6.8-6.8-6.8-17.9,0-24.7s17.9-6.8,24.7,0l0,0l26,26c3.1,3.1,8.2,3.1,11.3,0
	c3.1-3.1,3.1-8.2,0-11.3L408,220.7v-52.2c23,3.3,40,23,40,46.2V448H408z"/>
<path class="st1" d="M288,152h56v16h-56V152z"/>
<path class="st1" d="M360,152h16v16h-16V152z"/>
<path class="st1" d="M288,184h48v16h-48V184z"/>
<path class="st1" d="M288,216h32v16h-32V216z"/>
<path class="st1" d="M288,248h40v16h-40V248z"/>
<path class="st1" d="M288,280h64v16h-64V280z"/>
<path class="st1" d="M288,312h48v16h-48V312z"/>
<path class="st1" d="M288,344h32v16h-32V344z"/>
<path class="st1" d="M336,344h16v16h-16V344z"/>
<path class="st0" d="M55.9,208H104c4.4,0,8-3.6,8-8v-48.1c0-4.4-3.6-8-8-8H55.9c-4.4,0-8,3.6-8,8V200C47.9,204.4,51.5,208,55.9,208z
	 M63.9,159.9H96V192H63.9V159.9z"/>
<path class="st0" d="M135.9,208H184c4.4,0,8-3.6,8-8v-48.1c0-4.4-3.6-8-8-8h-48.1c-4.4,0-8,3.6-8,8V200
	C127.9,204.4,131.5,208,135.9,208z M143.9,159.9H176V192h-32.1V159.9z"/>
<path class="st0" d="M264.1,143.9H216c-4.4,0-8,3.6-8,8V200c0,4.4,3.6,8,8,8h48.1c4.4,0,8-3.6,8-8v-48.1
	C272.1,147.5,268.5,143.9,264.1,143.9z M256.1,192H224v-32.1h32.1V192z"/>
<path class="st0" d="M264.1,223.9H216c-4.4,0-8,3.6-8,8V280c0,4.4,3.6,8,8,8h48.1c4.4,0,8-3.6,8-8v-48.1
	C272.1,227.5,268.5,223.9,264.1,223.9z M256.1,272H224v-32.1h32.1V272z"/>
<path class="st0" d="M135.9,288H184c4.4,0,8-3.6,8-8v-48.1c0-4.4-3.6-8-8-8h-48.1c-4.4,0-8,3.6-8,8V280
	C127.9,284.4,131.5,288,135.9,288z M143.9,239.9H176V272h-32.1V239.9z"/>
<path class="st0" d="M104.1,223.9H56c-4.4,0-8,3.6-8,8V280c0,4.4,3.6,8,8,8h48.1c4.4,0,8-3.6,8-8v-48.1
	C112.1,227.5,108.5,223.9,104.1,223.9z M96.1,272H64v-32.1h32.1V272z"/>
<path class="st0" d="M104.1,303.9H56c-4.4,0-8,3.6-8,8V360c0,4.4,3.6,8,8,8h48.1c4.4,0,8-3.6,8-8v-48.1
	C112.1,307.5,108.5,303.9,104.1,303.9z M96.1,352H64v-32.1h32.1V352z"/>
<path class="st0" d="M184.1,303.9H136c-4.4,0-8,3.6-8,8V360c0,4.4,3.6,8,8,8h48.1c4.4,0,8-3.6,8-8v-48.1
	C192.1,307.5,188.5,303.9,184.1,303.9z M176.1,352H144v-32.1h32.1V352z"/>
<path class="st0" d="M264,303.9h-48.1c-4.4,0-8,3.6-8,8V360c0,4.4,3.6,8,8,8H264c4.4,0,8-3.6,8-8v-48.1
	C272,307.5,268.4,303.9,264,303.9z M256,352h-32.1v-32.1H256V352z"/>
</svg>
